<svg data-v-61f69926="" version="1.0" xmlns="http://www.w3.org/2000/svg" xmlns:xlink="http://www.w3.org/1999/xlink" width="100%" height="100%" viewBox="0 0 340.000000 250.000000" preserveAspectRatio="xMidYMid meet" color-interpolation-filters="sRGB" class="el-tooltip" style="margin: auto;"><rect data-v-61f69926="" x="0" y="0" width="100%" height="100%" fill="#ff3399" fill-opacity="1"></rect> <rect data-v-61f69926="" x="0" y="0" width="100%" height="100%" fill="url(#watermark)" fill-opacity="1" class="watermarklayer"></rect> <g data-v-61f69926="" fill="#ffffff" class="icon-text-wrapper icon-svg-group iconsvg" transform="translate(54.3800048828125,99.38750076293945)"><g class="iconsvg-imagesvg" transform="translate(0,0)"><rect fill="#ffffff" fill-opacity="0" stroke-width="2" x="0" y="0" width="60" height="51.225" class="image-rect"></rect> <svg filter="url(#colors53695208)" x="0" y="0" width="60" height="51.225" filtersec="colorsf7670983587" class="image-svg-svg"><svg xmlns="http://www.w3.org/2000/svg" viewBox="0 0 84.8 72.4"><path d="M54.4 27.2l9.1-9.1L82 52.3 42.4 70.2 2.8 52.3l18.6-34.1 9.1 9.1m11.9 42.9l21.9-21.8L42.4 4.5 20.5 48.3l21.9 21.9" fill="none" stroke="#333" stroke-width="4" stroke-miterlimit="10"></path></svg></svg> <defs><filter id="colors53695208"><feColorMatrix type="matrix" values="0 0 0 0 0.99609375  0 0 0 0 0.99609375  0 0 0 0 0.99609375  0 0 0 1 0" class="icon-fecolormatrix"></feColorMatrix></filter> <filter id="colorsf7670983587"><feColorMatrix type="matrix" values="0 0 0 0 0.99609375  0 0 0 0 0.99609375  0 0 0 0 0.99609375  0 0 0 1 0" class="icon-fecolormatrix"></feColorMatrix></filter> <filter id="colorsb7787203799"><feColorMatrix type="matrix" values="0 0 0 0 0  0 0 0 0 0  0 0 0 0 0  0 0 0 1 0" class="icon-fecolormatrix"></feColorMatrix></filter></defs></g> <g transform="translate(67,2.06591796875)"><g class="tp-name iconsvg-namesvg" transform="translate(0,0)"><g><path d="M18.74-21.02L18.74-25.96L2.88-25.96L2.88 0L8.57 0L8.57-10.10L17.99-10.10L17.99-15.00L8.57-15.00L8.57-21.02ZM28.73 0.22C29.55 0.22 30.33 0.15 31.05 0L31.05-4.19C30.60-4.08 30.26-4.08 29.96-4.08C28.73-4.08 28.28-4.53 28.28-6.32L28.28-28.43L22.85-28.43L22.85-5.01C22.85-1.42 24.24 0.22 28.73 0.22ZM47.02-20.20L47.02-6.84C46.38-4.75 44.92-4.04 42.83-4.04C40.17-4.04 39.54-5.16 39.54-7.82L39.54-20.20L34.11-20.20L34.11-6.36C34.11-1.98 35.91 0.37 40.88 0.37C43.87 0.37 45.93-0.49 47.09-2.43L47.50 0L52.40 0L52.40-20.20ZM67.89-15.93L67.89-20.20L63.70-20.20L63.70-24.99L58.28-24.99L58.28-20.20L55.62-20.20L55.62-15.93L58.28-15.93L58.28-6.47C58.28-1.16 60.03 0.22 65.01 0.22C65.91 0.22 66.84 0.15 67.63 0.04L67.63-4.15C67.21-4.04 66.65-4.00 66.02-4.00C64.11-4.00 63.70-4.56 63.70-6.92L63.70-15.93ZM81.50-15.93L81.50-20.20L77.31-20.20L77.31-24.99L71.89-24.99L71.89-20.20L69.23-20.20L69.23-15.93L71.89-15.93L71.89-6.47C71.89-1.16 73.65 0.22 78.62 0.22C79.52 0.22 80.46 0.15 81.24 0.04L81.24-4.15C80.83-4.04 80.27-4.00 79.63-4.00C77.72-4.00 77.31-4.56 77.31-6.92L77.31-15.93ZM102.45-11.71C102.45-16.91 100.84-20.57 93.81-20.57C87.49-20.57 83.82-18.29 83.82-10.10C83.82-1.91 87.49 0.37 93.66 0.37C97.17 0.37 100.20-0.34 101.40-1.05L101.40-5.31C100.09-4.60 97.17-3.89 94.71-3.89C91.12-3.89 89.43-5.20 89.25-8.08L102.26-8.90C102.37-9.46 102.45-10.55 102.45-11.71ZM89.25-11.86C89.36-15.04 90.48-16.50 93.81-16.50C96.99-16.50 97.51-14.70 97.51-12.49ZM118.08-20.57C115.69-20.57 113.41-19.90 112.21-16.57L112.21-20.20L106.79-20.20L106.79 0L112.21 0L112.21-11.48C112.81-14.77 115.32-15.75 117.82-15.75L118.35-15.75L118.50-20.57ZM133.79 0.37C136.30 0.37 138.58-0.07 140.11-0.71L140.11-5.57C138.13-4.86 136.19-4.56 134.06-4.56C129.45-4.56 127.40-6.28 127.40-13.02C127.40-19.38 129.45-21.47 134.13-21.47C136.34-21.47 138.21-21.13 139.82-20.57L139.82-25.47C138.21-26.03 136.19-26.33 133.76-26.33C126.13-26.33 121.23-23.00 121.23-12.98C121.23-2.09 126.20 0.37 133.79 0.37ZM144.49 0L150.10 0L150.10-19.75L150.33-19.75L159.30 0L167.12 0L167.12-25.96L161.55-25.96L161.55-7.41L161.32-7.41L153.17-25.96L144.49-25.96Z" transform="translate(-2.8800880088009, 28.426842684268)"></path></g> <!----> <!----> <!----> <!----> <!----> <!----> <g fill="#ffffff" transform="translate(167.239990234375,0)"></g></g> <g class="tp-slogan iconsvg-slogansvg" fill="#ffffff" transform="translate(0,35.80000114440918)"><!----> <rect x="0" height="1" y="5.144999980926514" width="35.579994201660156"></rect> <rect height="1" y="5.144999980926514" width="35.579994201660156" x="128.65999603271484"></rect> <g transform="translate(38.579994201660156,0)"><path d="M6.01-6.74L6.01-8.33L0.92-8.33L0.92 0L2.75 0L2.75-3.24L5.77-3.24L5.77-4.81L2.75-4.81L2.75-6.74ZM9.22 0.07C9.48 0.07 9.73 0.05 9.96 0L9.96-1.34C9.82-1.31 9.71-1.31 9.61-1.31C9.22-1.31 9.07-1.45 9.07-2.03L9.07-9.12L7.33-9.12L7.33-1.61C7.33-0.46 7.78 0.07 9.22 0.07ZM15.08-6.48L15.08-2.20C14.88-1.52 14.41-1.30 13.74-1.30C12.89-1.30 12.68-1.66 12.68-2.51L12.68-6.48L10.94-6.48L10.94-2.04C10.94-0.64 11.52 0.12 13.12 0.12C14.08 0.12 14.74-0.16 15.11-0.78L15.24 0L16.81 0L16.81-6.48ZM21.78-5.11L21.78-6.48L20.44-6.48L20.44-8.02L18.70-8.02L18.70-6.48L17.84-6.48L17.84-5.11L18.70-5.11L18.70-2.08C18.70-0.37 19.26 0.07 20.86 0.07C21.14 0.07 21.44 0.05 21.70 0.01L21.70-1.33C21.56-1.30 21.38-1.28 21.18-1.28C20.57-1.28 20.44-1.46 20.44-2.22L20.44-5.11ZM26.15-5.11L26.15-6.48L24.80-6.48L24.80-8.02L23.06-8.02L23.06-6.48L22.21-6.48L22.21-5.11L23.06-5.11L23.06-2.08C23.06-0.37 23.63 0.07 25.22 0.07C25.51 0.07 25.81 0.05 26.06 0.01L26.06-1.33C25.93-1.30 25.75-1.28 25.55-1.28C24.94-1.28 24.80-1.46 24.80-2.22L24.80-5.11ZM32.87-3.76C32.87-5.42 32.35-6.60 30.10-6.60C28.07-6.60 26.89-5.87 26.89-3.24C26.89-0.61 28.07 0.12 30.05 0.12C31.18 0.12 32.15-0.11 32.53-0.34L32.53-1.70C32.11-1.48 31.18-1.25 30.38-1.25C29.23-1.25 28.69-1.67 28.63-2.59L32.81-2.86C32.84-3.04 32.87-3.38 32.87-3.76ZM28.63-3.80C28.67-4.82 29.03-5.29 30.10-5.29C31.12-5.29 31.28-4.72 31.28-4.01ZM37.88-6.60C37.12-6.60 36.38-6.38 36-5.32L36-6.48L34.26-6.48L34.26 0L36 0L36-3.68C36.19-4.74 37.00-5.05 37.80-5.05L37.97-5.05L38.02-6.60ZM45.05-5.38L44.51-5.11L44.51-6.13L45.25-6.13L45.25-7.54L44.51-7.54L44.51-9.32L43.18-9.38L43.18-7.54L42.13-7.54L42.13-6.13L43.18-6.13L43.18-4.54C42.61-4.31 42.07-4.09 41.70-3.96L42.04-2.50C42.31-2.64 42.71-2.82 43.18-3.02L43.18-0.68C43.18-0.31 43.06-0.23 42.73-0.18L42.10-0.08L42.49 1.27L43.24 1.18C44.29 1.04 44.51 0.59 44.51-0.53L44.51-3.59L45.38-3.96ZM46.80-7.67L50.80-7.67L50.80-6.62L52.09-6.62L52.09-9.04L45.50-9.04L45.50-6.64L46.80-6.64ZM48.89-6.31C49.48-5.89 50.59-5.03 51.26-4.45L52.04-5.51C51.56-5.93 50.21-6.92 49.63-7.34ZM47.66-7.31C47.09-6.60 46.26-5.92 45.49-5.39L46.24-4.31C47.05-4.90 47.92-5.70 48.59-6.38ZM52.06-2.83L52.06-4.18L49.38-4.18L49.38-5.21L48.04-5.27L48.04-4.18L45.47-4.18L45.47-2.83L47.57-2.83C46.86-1.93 45.98-1.25 44.58-0.42L45.43 0.88C46.55 0.12 47.36-0.61 48.04-1.48L48.04 1.20L49.38 1.20L49.38-1.44C50.09-0.58 50.95 0.19 51.92 0.82L52.74-0.49C51.53-1.18 50.52-1.92 49.80-2.83ZM62.40-1.84L62.98-1.21L63.79-2.30C63.18-2.88 62.24-3.71 61.63-4.26L60.78-3.37C60.91-3.28 61.03-3.17 61.18-3.04C60.32-3 59.41-2.98 58.68-2.94C59.50-3.22 60.53-3.82 61.88-4.69L61.14-5.74L62.44-5.74L62.44-4.75L63.92-4.75L63.92-6.97L59.71-6.97L59.71-7.54L63.38-7.54L63.38-8.83L59.71-8.83L59.71-9.48L58.25-9.55L58.25-8.83L54.60-8.83L54.60-7.54L58.25-7.54L58.25-6.97L54.04-6.97L54.04-4.78L55.54-4.78L55.54-5.74L57.55-5.74C56.94-5.32 56.36-4.97 55.99-4.79C55.84-4.69 55.60-4.66 55.16-4.57L55.33-3.59C55.52-3.62 55.87-3.64 56.20-3.65C56.57-3.66 57.04-3.68 57.55-3.70C56.84-3.35 56.21-3.10 55.74-2.96C55.27-2.86 54.77-2.82 54.42-2.82L54.64-1.58C54.94-1.62 55.28-1.61 55.68-1.64L56.39-1.68C55.63-1.14 54.46-0.52 53.56-0.13L54.24 1.13C55.28 0.66 56.34-0.05 57.30-0.68L56.69-1.69C57.20-1.73 57.76-1.72 58.33-1.75L58.33-0.82C58.33-0.43 58.32-0.24 57.71-0.18L57.08-0.11L57.53 1.25L58.34 1.16C59.40 1.07 59.80 0.97 59.80-0.08L59.80-1.79L60.98-1.81L60.36-0.66C61.16-0.30 62.89 0.66 63.66 1.14L64.25-0.22C63.48-0.64 61.90-1.40 61.04-1.81ZM58.13-4.75C58.45-4.93 58.74-5.15 59.11-5.44L58.86-5.74L61.00-5.74C60.58-5.44 60.07-5.11 59.54-4.79ZM76.16-0.10C74.92-0.46 73.86-0.89 72.98-1.38C73.70-2.04 74.26-2.80 74.83-3.82L74.83-5.22L70.09-5.22C70.18-5.50 70.24-5.78 70.32-6.08L75.74-6.08L75.74-7.49L73.84-7.49L74.48-8.41C74.11-8.78 73.21-9.52 72.79-9.84L71.94-8.78C72.29-8.50 72.95-7.90 73.39-7.49L70.61-7.49C70.70-8.08 70.79-8.71 70.87-9.38L69.41-9.58C69.32-8.84 69.23-8.16 69.10-7.49L67.76-7.49C67.86-7.75 68.11-8.65 68.21-9.10L66.77-9.35C66.67-8.82 66.40-7.72 66.26-7.38L66.26-6.08L68.75-6.08C68.08-3.74 66.97-1.91 65.29-0.28L66.40 0.91C66.68 0.61 66.95 0.31 67.20 0.02L67.80 1.26C69.47 0.70 70.69 0.18 71.66-0.41C72.67 0.30 73.92 0.86 75.47 1.39ZM71.76-2.23C71.22-2.69 70.75-3.22 70.38-3.80L73.15-3.80C72.82-3.24 72.37-2.71 71.76-2.23ZM67.36-0.17C68.14-1.09 68.74-1.99 69.22-2.95C69.55-2.39 69.96-1.87 70.45-1.40C69.64-0.96 68.64-0.55 67.36-0.17ZM82.80-7.76L85.78-7.76L85.78-2.46L87.13-2.46L87.13-9.22L81.47-9.22L81.47-2.46L82.80-2.46ZM81.31-1.67L81.23-2.29C81.05-2.24 80.62-2.11 80.05-1.97L80.05-4.02L81.14-4.02L81.14-5.47L80.05-5.47L80.05-7.46L81.14-7.46L81.14-8.92L77.51-8.92L77.51-7.46L78.66-7.46L78.66-5.47L77.57-5.47L77.57-4.02L78.66-4.02L78.66-1.61L77.15-1.21L77.44 0.22C77.94 0.06 80.90-0.71 81.44-0.85ZM86.76-2.04C86.75-1.67 86.74-1.24 86.65-0.79C86.59-0.44 86.50-0.38 86.12-0.35C85.97-0.34 85.80-0.34 85.64-0.35C85.34-0.38 85.26-0.44 85.26-0.86L85.26-3.16L84.70-3.18C84.80-3.71 84.88-4.27 84.89-4.90C84.89-5.32 84.92-6.92 84.92-7.30L83.60-7.36C83.60-6.97 83.57-5.47 83.57-5.09C83.44-2.42 82.90-1.33 80.11 0.17L81.04 1.45C82.39 0.62 83.33-0.22 83.94-1.26L83.94-0.32C83.94 0.70 84.29 1.02 85.25 1.08C85.58 1.10 85.92 1.10 86.27 1.08C87.42 0.98 87.67 0.83 87.86-0.28C87.95-0.74 87.98-1.24 88.00-1.61Z" transform="translate(-0.924, 9.84)"></path></g></g></g></g></svg>
